<svg width="34" height="34" viewBox="0 0 34 34" fill="none" xmlns="http://www.w3.org/2000/svg">
<circle cx="17" cy="17" r="17" fill="white"/>
<path fill-rule="evenodd" clip-rule="evenodd" d="M16.93 3.5625H17.07C19.3675 3.5625 21.1875 3.5625 22.6113 3.75375C24.0763 3.95125 25.2625 4.36625 26.1987 5.30125C27.1337 6.2375 27.5488 7.42375 27.7463 8.88875C27.875 9.84375 27.9162 10.9762 27.93 12.3125H28.25C29.4575 12.3125 30.4375 13.2925 30.4375 14.5V15.75C30.4375 16.4375 30.1125 17.0875 29.5625 17.5L27.9337 18.7212C27.925 20.2612 27.8888 21.5463 27.7463 22.6113C27.5488 24.0763 27.1337 25.2625 26.1987 26.1987C25.9612 26.4354 25.7075 26.6408 25.4375 26.815V28.25C25.4375 28.8302 25.207 29.3866 24.7968 29.7968C24.3866 30.207 23.8302 30.4375 23.25 30.4375H21.375C20.7948 30.4375 20.2384 30.207 19.8282 29.7968C19.418 29.3866 19.1875 28.8302 19.1875 28.25V27.93C18.5325 27.9358 17.8267 27.9383 17.07 27.9375H16.93C16.1725 27.9392 15.4667 27.9367 14.8125 27.93V28.25C14.8125 28.8302 14.582 29.3866 14.1718 29.7968C13.7616 30.207 13.2052 30.4375 12.625 30.4375H10.75C10.1698 30.4375 9.61344 30.207 9.2032 29.7968C8.79297 29.3866 8.5625 28.8302 8.5625 28.25V26.815C8.28765 26.6371 8.03247 26.4305 7.80125 26.1987C6.86625 25.2625 6.45125 24.0763 6.25375 22.6113C6.11125 21.5463 6.075 20.2612 6.06625 18.7212L4.4375 17.5C3.8875 17.0875 3.5625 16.4375 3.5625 15.75V14.5C3.5625 13.2925 4.5425 12.3125 5.75 12.3125H6.06875C6.08375 10.9762 6.125 9.84375 6.25375 8.88875C6.45125 7.42375 6.86625 6.2375 7.80125 5.30125C8.7375 4.36625 9.92375 3.95125 11.3888 3.75375C12.8138 3.5625 14.6325 3.5625 16.93 3.5625ZM6.0625 14.1875H5.75C5.66712 14.1875 5.58763 14.2204 5.52903 14.279C5.47042 14.3376 5.4375 14.4171 5.4375 14.5V15.75C5.4375 15.7985 5.4488 15.8464 5.47049 15.8898C5.49219 15.9331 5.52369 15.9709 5.5625 16L6.0625 16.375V14.1875ZM7.945 19.1875C7.9575 20.48 7.9975 21.51 8.1125 22.3625C8.28125 23.6188 8.59875 24.3438 9.1275 24.8725C9.65625 25.4013 10.3812 25.7188 11.6387 25.8875C12.9237 26.06 14.6163 26.0625 17 26.0625C19.3837 26.0625 21.0775 26.06 22.3625 25.8875C23.6188 25.7188 24.3438 25.4013 24.8725 24.8725C25.4013 24.3438 25.7188 23.6187 25.8875 22.3612C26.0025 21.5112 26.0412 20.48 26.055 19.1875H7.945ZM26.0625 17.3125H7.9375V14.5C7.9375 12.1462 7.94 10.4663 8.10625 9.1875H25.8937C26.06 10.4663 26.0625 12.1462 26.0625 14.5V17.3125ZM27.9375 16.375L28.4375 16C28.4763 15.9709 28.5078 15.9331 28.5295 15.8898C28.5512 15.8464 28.5625 15.7985 28.5625 15.75V14.5C28.5625 14.4171 28.5296 14.3376 28.471 14.279C28.4124 14.2204 28.3329 14.1875 28.25 14.1875H27.9375V16.375ZM25.3763 7.3125C25.2432 7.06046 25.0734 6.8296 24.8725 6.6275C24.3438 6.09875 23.6187 5.78125 22.3612 5.6125C21.0762 5.44 19.3837 5.4375 17 5.4375C14.6163 5.4375 12.9238 5.44 11.6375 5.6125C10.3813 5.78125 9.65625 6.09875 9.1275 6.6275C8.92656 6.8296 8.75679 7.06046 8.62375 7.3125H25.3763ZM10.4375 27.575V28.25C10.4375 28.4225 10.5775 28.5625 10.75 28.5625H12.625C12.7079 28.5625 12.7874 28.5296 12.846 28.471C12.9046 28.4124 12.9375 28.3329 12.9375 28.25V27.88C12.4196 27.8568 11.9029 27.8122 11.3888 27.7463C11.0691 27.7045 10.7516 27.6474 10.4375 27.575ZM21.0625 27.88V28.25C21.0625 28.4225 21.2025 28.5625 21.375 28.5625H23.25C23.3329 28.5625 23.4124 28.5296 23.471 28.471C23.5296 28.4124 23.5625 28.3329 23.5625 28.25V27.575C23.26 27.645 22.9429 27.7021 22.6113 27.7463C22.0971 27.8122 21.5804 27.8568 21.0625 27.88ZM9.8125 22C9.8125 21.7514 9.91127 21.5129 10.0871 21.3371C10.2629 21.1613 10.5014 21.0625 10.75 21.0625H12.625C12.8736 21.0625 13.1121 21.1613 13.2879 21.3371C13.4637 21.5129 13.5625 21.7514 13.5625 22C13.5625 22.2486 13.4637 22.4871 13.2879 22.6629C13.1121 22.8387 12.8736 22.9375 12.625 22.9375H10.75C10.5014 22.9375 10.2629 22.8387 10.0871 22.6629C9.91127 22.4871 9.8125 22.2486 9.8125 22ZM20.4375 22C20.4375 21.7514 20.5363 21.5129 20.7121 21.3371C20.8879 21.1613 21.1264 21.0625 21.375 21.0625H23.25C23.4986 21.0625 23.7371 21.1613 23.9129 21.3371C24.0887 21.5129 24.1875 21.7514 24.1875 22C24.1875 22.2486 24.0887 22.4871 23.9129 22.6629C23.7371 22.8387 23.4986 22.9375 23.25 22.9375H21.375C21.1264 22.9375 20.8879 22.8387 20.7121 22.6629C20.5363 22.4871 20.4375 22.2486 20.4375 22Z" fill="#0857A8"/>
</svg>
